<svg width="395" height="2336" viewBox="0 0 395 2336" fill="none" xmlns="http://www.w3.org/2000/svg">
<g filter="url(#filter0_d_1_7)">
<path d="M209 0V206C222.662 242.951 231.997 251.103 251 248C277.655 237.934 280.834 229.496 272 211C211.965 204.543 175.818 220.146 179 253C195.819 250.77 203.699 249.485 209 226V296V359C159.867 421.484 164.369 456.516 209 519C261.393 587.67 260.784 618.844 209 658C157.319 722.648 153.781 755.715 209 807C284.859 884.372 282.545 930.955 209 1019C157.417 1108.19 159.364 1159.24 209 1249V1583V1854C233.501 1919.21 257.835 1942.22 321 1958C380.806 1945.89 394.254 1921.89 389 1854C246.611 1847.03 183.117 1873.47 90 1958C11.5057 1955.05 -7.38621 1933.7 12 1854C244.332 1773.36 325.497 1816.99 389 2042C302.633 2098.5 134.338 2074.01 209 2127C229.35 2244.35 226.429 2282.51 209 2327" stroke="#F24040" shape-rendering="crispEdges"/>
<path d="M209 0V206C222.662 242.951 231.997 251.103 251 248C277.655 237.934 280.834 229.496 272 211C211.965 204.543 175.818 220.146 179 253C195.819 250.77 203.699 249.485 209 226V296V359C159.867 421.484 164.369 456.516 209 519C261.393 587.67 260.784 618.844 209 658C157.319 722.648 153.781 755.715 209 807C284.859 884.372 282.545 930.955 209 1019C157.417 1108.19 159.364 1159.24 209 1249V1583V1854C233.501 1919.21 257.835 1942.22 321 1958C380.806 1945.89 394.254 1921.89 389 1854C246.611 1847.03 183.117 1873.47 90 1958C11.5057 1955.05 -7.38621 1933.7 12 1854C244.332 1773.36 325.497 1816.99 389 2042C302.633 2098.5 134.338 2074.01 209 2127C229.35 2244.35 226.429 2282.51 209 2327" stroke="black" stroke-opacity="0.2" shape-rendering="crispEdges"/>
</g>
<defs>
<filter id="filter0_d_1_7" x="0.450378" y="0" width="394.09" height="2335.18" filterUnits="userSpaceOnUse" color-interpolation-filters="sRGB">
<feFlood flood-opacity="0" result="BackgroundImageFix"/>
<feColorMatrix in="SourceAlpha" type="matrix" values="0 0 0 0 0 0 0 0 0 0 0 0 0 0 0 0 0 0 127 0" result="hardAlpha"/>
<feOffset dy="4"/>
<feGaussianBlur stdDeviation="2"/>
<feComposite in2="hardAlpha" operator="out"/>
<feColorMatrix type="matrix" values="0 0 0 0 0 0 0 0 0 0 0 0 0 0 0 0 0 0 0.25 0"/>
<feBlend mode="normal" in2="BackgroundImageFix" result="effect1_dropShadow_1_7"/>
<feBlend mode="normal" in="SourceGraphic" in2="effect1_dropShadow_1_7" result="shape"/>
</filter>
</defs>
</svg>
